<svg width="1447" height="401" viewBox="0 0 1447 401" fill="none" xmlns="http://www.w3.org/2000/svg">
<path d="M265.153 325.379H135.314C123.06 316.776 111.458 306.868 100.508 295.657C91.6433 298.786 83.1699 300.35 75.0876 300.35C54.2299 300.35 36.5009 292.985 21.9005 278.254C7.30018 263.523 0 245.86 0 225.263C0 208.837 4.82333 194.172 14.47 181.266C24.1167 168.36 36.5009 159.3 51.6227 154.086C51.8834 152.522 52.0138 151.218 52.0138 150.175H348.453C349.757 159.3 350.409 175.986 350.409 200.234C350.409 211.966 347.671 224.22 342.196 236.995C336.721 249.77 329.551 261.633 320.686 272.584C311.822 283.534 302.762 293.376 293.506 302.11C284.251 310.844 274.8 318.601 265.153 325.379ZM50.0584 200.234C50.0584 196.323 50.1887 190.196 50.4495 181.853C42.6278 186.285 36.4357 192.347 31.8731 200.038C27.3105 207.729 25.0292 216.137 25.0292 225.263C25.0292 239.081 29.9177 250.879 39.6947 260.656C49.4718 270.433 61.2694 275.321 75.0876 275.321C76.1304 275.321 78.2162 275.06 81.3449 274.539C60.4872 248.206 50.0584 223.438 50.0584 200.234ZM225.263 75.0876C225.263 81.0841 226.436 88.254 228.782 96.597C238.951 103.897 245.599 113.414 248.728 125.146H223.698C223.177 121.496 222.525 118.367 221.743 115.76C207.403 105.853 200.234 92.2951 200.234 75.0876C200.234 61.2694 205.122 49.4718 214.899 39.6947C224.676 29.9177 236.474 25.0292 250.292 25.0292C254.203 25.0292 258.374 25.5506 262.806 26.5935C251.856 29.4614 242.861 35.3277 235.822 44.1922C228.782 53.0567 225.263 63.3551 225.263 75.0876ZM150.175 50.0584C150.175 56.055 151.348 63.2248 153.695 71.5678C168.034 81.7359 175.204 95.4238 175.204 112.631C175.204 116.281 174.553 120.453 173.249 125.146H148.611C149.654 120.453 150.175 116.281 150.175 112.631C150.175 106.374 149.002 99.0739 146.655 90.7308C132.316 80.8234 125.146 67.2659 125.146 50.0584C125.146 36.2402 130.034 24.4426 139.811 14.6655C149.589 4.88851 161.386 0 175.204 0C179.115 0 183.287 0.521441 187.719 1.56432C176.769 4.43225 167.774 10.2985 160.734 19.163C153.695 28.0275 150.175 38.3259 150.175 50.0584ZM300.35 400.467H100.117C85.7771 400.467 70.6553 397.664 54.7513 392.059C38.8474 386.453 25.7462 379.675 15.4477 371.723C5.14923 363.771 0 356.666 0 350.409H400.467C400.467 356.666 395.318 363.771 385.019 371.723C374.721 379.675 361.62 386.453 345.716 392.059C329.812 397.664 314.69 400.467 300.35 400.467Z" fill="#F0EEED"/>
<path d="M520.221 237.234V229.414H531.73V161.984H520.221V154.164H561.387C570.633 154.164 577.666 155.935 582.486 159.476C587.405 162.919 589.864 168.034 589.864 174.821C589.864 179.346 588.683 183.182 586.323 186.33C584.06 189.477 581.06 191.691 577.322 192.969C581.06 193.855 584.158 195.33 586.618 197.396C589.175 199.363 591.093 201.773 592.372 204.626C593.651 207.38 594.29 210.429 594.29 213.774C594.29 217.708 593.356 221.495 591.487 225.135C589.618 228.676 586.47 231.578 582.044 233.84C577.716 236.102 571.863 237.234 564.486 237.234H520.221ZM543.829 229.414H562.42C569.404 229.414 574.42 227.987 577.47 225.135C580.519 222.282 582.044 218.347 582.044 213.331C582.044 208.708 580.421 204.97 577.175 202.117C573.929 199.166 568.863 197.691 561.977 197.691H543.829V229.414ZM543.829 189.576H560.649C566.748 189.576 571.125 188.297 573.781 185.74C576.535 183.182 577.912 179.69 577.912 175.264C577.912 170.345 576.338 166.903 573.191 164.935C570.043 162.968 564.977 161.984 557.993 161.984H543.829V189.576ZM605.81 237.234V229.414H617.319V161.984H605.81V154.164H649.484C655.288 154.164 660.304 155.001 664.534 156.673C668.764 158.247 672.01 160.657 674.272 163.903C676.535 167.05 677.666 171.034 677.666 175.854C677.666 179.69 676.928 183.133 675.453 186.182C674.075 189.232 671.813 191.789 668.665 193.855C665.518 195.822 661.386 197.199 656.271 197.986L675.305 229.414H687.551V237.234H667.042L644.763 199.166H634.582V191.051H647.566C652.386 191.051 656.075 190.314 658.632 188.838C661.288 187.264 663.108 185.346 664.091 183.084C665.173 180.723 665.714 178.362 665.714 176.001C665.714 173.444 665.124 171.132 663.944 169.067C662.862 166.903 661.14 165.181 658.78 163.903C656.419 162.624 653.37 161.984 649.632 161.984H629.418V229.414H640.926V237.234H605.81ZM697.163 237.234V229.414H708.671V161.984H697.163V154.164H769.461V178.805H760.165V161.984H720.77V190.166H746.591V180.428H752.64V208.167H746.591V198.281H720.77V229.414H760.903V212.151H770.199V237.234H697.163ZM814.615 237.234L791.007 161.984H780.827V154.164H813.287V161.984H802.516L820.517 221.889L841.911 155.64H850.616L872.158 221.889L889.716 161.984H878.945V154.164H909.93V161.984H899.602L876.732 237.234H866.404L845.6 174.378L824.943 237.234H814.615ZM964.016 237.234V229.414H975.524V161.984H964.016V154.164H999.132V161.984H987.623V190.314H1031.89V161.984H1020.23V154.164H1055.35V161.984H1043.84V229.414H1055.35V237.234H1020.23V229.414H1031.89V198.724H987.623V229.414H999.132V237.234H964.016ZM1065.27 237.234V229.414H1075.9L1099.95 161.984H1090.65V154.164H1131.23V161.984H1121.64L1146.42 229.414H1156.46V237.234H1122.67V229.414H1133.73L1125.32 205.216H1095.22L1086.96 229.414H1098.03V237.234H1065.27ZM1097.58 197.396H1122.96L1110.86 162.132H1109.98L1097.58 197.396ZM1203.35 237.234L1173.54 161.984H1163.07V154.164H1196.86V161.984H1185.94L1209.4 224.102L1232.56 161.984H1221.94V154.164H1253.51V161.984H1243.33L1213.82 237.234H1203.35ZM1261.85 237.234V229.414H1273.36V161.984H1261.85V154.164H1334.15V178.805H1324.85V161.984H1285.46V190.166H1311.28V180.428H1317.33V208.167H1311.28V198.281H1285.46V229.414H1325.59V212.151H1334.88V237.234H1261.85ZM1348.02 237.234V229.414H1359.82V161.984H1348.02V154.164H1373.69L1421.2 221.298V161.984H1409.4V154.164H1442.01V161.984H1430.5V237.234H1418.55L1368.97 166.558V229.414H1380.78V237.234H1348.02Z" fill="#F0EEED"/>
</svg>
